# xmcd
#
# Track frame offsets:
#	150
#	14115
#	26333
#	39401
#	55425
#	73628
#	94034
#	115196
#	126129
#	149591
#	166281
#	179932
#	200145
#	216704
#	233628
#	246226
#	258857
#	272135
#
# Disc length: 3820 seconds
#
# Revision: 0
# Processed by: cddbd v1.5.1PL2 Copyright (c) Steve Scherf et al.
# Submitted via: audiograbber 1.83.01
#
DISCID=1c0eea12
DTITLE=Various Artist - EK003
DYEAR=1900
DGENRE=Karaoke
TTITLE0=Rimes, LeAnn - Blue
TTITLE1=Miller, Roger - King Of The Road
TTITLE2=Cline, Patsy - Crazy
TTITLE3=Twain, Shania - You're Still The One
TTITLE4=Twain, Shania - From This Moment
TTITLE5=Rogers, Kenny - Coward Of The County
TTITLE6=Rimes, LeAnn - How Do I Live
TTITLE7=Cline, Patsy - I Fall To Pieces
TTITLE8=Robbins, Marty - El Paso
TTITLE9=Cyrus, Billy Ray - Achy Breaky Heart
TTITLE10=Orbison, Roy - Crying
TTITLE11=Mavericks - Dance The Night Away
TTITLE12=Daniels, Charlie - Devil Went Down To Georgia, The
TTITLE13=Rogers, Kenny - Lucille
TTITLE14=Gayle, Crystal - Don't It Make Your Brown Eyes Blue
TTITLE15=Wynette, Tammy - Stand By Your Man
TTITLE16=Williams, Hank - Your Cheatin' Heart
TTITLE17=Rich, Charlie - Most Beautiful Girl In The World
EXTD=
EXTT0=
EXTT1=
EXTT2=
EXTT3=
EXTT4=
EXTT5=
EXTT6=
EXTT7=
EXTT8=
EXTT9=
EXTT10=
EXTT11=
EXTT12=
EXTT13=
EXTT14=
EXTT15=
EXTT16=
EXTT17=
PLAYORDER=
